# 球体模型 (Sphere)
# 半径: 2.0
# 使用经纬度参数化生成
# 经度分辨率: 16 (360度分为16份)
# 纬度分辨率: 8 (180度分为8份)
# 所有法向量朝向球体外侧

# 顶点坐标 - 使用球坐标转换为笛卡尔坐标
# x = r * sin(θ) * cos(φ), y = r * cos(θ), z = r * sin(θ) * sin(φ)
# θ: 纬度角 (0到π), φ: 经度角 (0到2π)

# 顶点 (vertices)
v 0.000000 2.000000 0.000000
v 0.765367 1.847759 0.000000
v 1.414214 1.414214 0.000000
v 1.847759 0.765367 0.000000
v 2.000000 0.000000 0.000000
v 1.847759 -0.765367 0.000000
v 1.414214 -1.414214 0.000000
v 0.765367 -1.847759 0.000000
v 0.000000 -2.000000 0.000000
v 0.541196 1.847759 0.541196
v 1.000000 1.414214 1.000000
v 1.305982 0.765367 1.305982
v 1.414214 0.000000 1.414214
v 1.305982 -0.765367 1.305982
v 1.000000 -1.414214 1.000000
v 0.541196 -1.847759 0.541196
v 0.000000 1.847759 0.765367
v 0.000000 1.414214 1.414214
v 0.000000 0.765367 1.847759
v 0.000000 0.000000 2.000000
v 0.000000 -0.765367 1.847759
v 0.000000 -1.414214 1.414214
v 0.000000 -1.847759 0.765367
v -0.541196 1.847759 0.541196
v -1.000000 1.414214 1.000000
v -1.305982 0.765367 1.305982
v -1.414214 0.000000 1.414214
v -1.305982 -0.765367 1.305982
v -1.000000 -1.414214 1.000000
v -0.541196 -1.847759 0.541196
v -0.765367 1.847759 0.000000
v -1.414214 1.414214 0.000000
v -1.847759 0.765367 0.000000
v -2.000000 0.000000 0.000000
v -1.847759 -0.765367 0.000000
v -1.414214 -1.414214 0.000000
v -0.765367 -1.847759 0.000000
v -0.541196 1.847759 -0.541196
v -1.000000 1.414214 -1.000000
v -1.305982 0.765367 -1.305982
v -1.414214 0.000000 -1.414214
v -1.305982 -0.765367 -1.305982
v -1.000000 -1.414214 -1.000000
v -0.541196 -1.847759 -0.541196
v 0.000000 1.847759 -0.765367
v 0.000000 1.414214 -1.414214
v 0.000000 0.765367 -1.847759
v 0.000000 0.000000 -2.000000
v 0.000000 -0.765367 -1.847759
v 0.000000 -1.414214 -1.414214
v 0.000000 -1.847759 -0.765367
v 0.541196 1.847759 -0.541196
v 1.000000 1.414214 -1.000000
v 1.305982 0.765367 -1.305982
v 1.414214 0.000000 -1.414214
v 1.305982 -0.765367 -1.305982
v 1.000000 -1.414214 -1.000000
v 0.541196 -1.847759 -0.541196

# 纹理坐标 (texture coordinates)
vt 0.000000 0.000000
vt 0.125000 0.000000
vt 0.250000 0.000000
vt 0.375000 0.000000
vt 0.500000 0.000000
vt 0.625000 0.000000
vt 0.750000 0.000000
vt 0.875000 0.000000
vt 1.000000 0.000000
vt 0.000000 0.250000
vt 0.125000 0.250000
vt 0.250000 0.250000
vt 0.375000 0.250000
vt 0.500000 0.250000
vt 0.625000 0.250000
vt 0.750000 0.250000
vt 0.875000 0.250000
vt 0.000000 0.500000
vt 0.125000 0.500000
vt 0.250000 0.500000
vt 0.375000 0.500000
vt 0.500000 0.500000
vt 0.625000 0.500000
vt 0.750000 0.500000
vt 0.875000 0.500000
vt 0.000000 0.750000
vt 0.125000 0.750000
vt 0.250000 0.750000
vt 0.375000 0.750000
vt 0.500000 0.750000
vt 0.625000 0.750000
vt 0.750000 0.750000
vt 0.875000 0.750000
vt 0.000000 1.000000
vt 0.125000 1.000000
vt 0.250000 1.000000
vt 0.375000 1.000000
vt 0.500000 1.000000
vt 0.625000 1.000000
vt 0.750000 1.000000
vt 0.875000 1.000000

# 法向量 (normals) - 球体的法向量就是从球心指向顶点的单位向量
vn 0.000000 1.000000 0.000000
vn 0.382683 0.923880 0.000000
vn 0.707107 0.707107 0.000000
vn 0.923880 0.382683 0.000000
vn 1.000000 0.000000 0.000000
vn 0.923880 -0.382683 0.000000
vn 0.707107 -0.707107 0.000000
vn 0.382683 -0.923880 0.000000
vn 0.000000 -1.000000 0.000000
vn 0.270598 0.923880 0.270598
vn 0.500000 0.707107 0.500000
vn 0.652991 0.382683 0.652991
vn 0.707107 0.000000 0.707107
vn 0.652991 -0.382683 0.652991
vn 0.500000 -0.707107 0.500000
vn 0.270598 -0.923880 0.270598
vn 0.000000 0.923880 0.382683
vn 0.000000 0.707107 0.707107
vn 0.000000 0.382683 0.923880
vn 0.000000 0.000000 1.000000
vn 0.000000 -0.382683 0.923880
vn 0.000000 -0.707107 0.707107
vn 0.000000 -0.923880 0.382683
vn -0.270598 0.923880 0.270598
vn -0.500000 0.707107 0.500000
vn -0.652991 0.382683 0.652991
vn -0.707107 0.000000 0.707107
vn -0.652991 -0.382683 0.652991
vn -0.500000 -0.707107 0.500000
vn -0.270598 -0.923880 0.270598
vn -0.382683 0.923880 0.000000
vn -0.707107 0.707107 0.000000
vn -0.923880 0.382683 0.000000
vn -1.000000 0.000000 0.000000
vn -0.923880 -0.382683 0.000000
vn -0.707107 -0.707107 0.000000
vn -0.382683 -0.923880 0.000000
vn -0.270598 0.923880 -0.270598
vn -0.500000 0.707107 -0.500000
vn -0.652991 0.382683 -0.652991
vn -0.707107 0.000000 -0.707107
vn -0.652991 -0.382683 -0.652991
vn -0.500000 -0.707107 -0.500000
vn -0.270598 -0.923880 -0.270598
vn 0.000000 0.923880 -0.382683
vn 0.000000 0.707107 -0.707107
vn 0.000000 0.382683 -0.923880
vn 0.000000 0.000000 -1.000000
vn 0.000000 -0.382683 -0.923880
vn 0.000000 -0.707107 -0.707107
vn 0.000000 -0.923880 -0.382683
vn 0.270598 0.923880 -0.270598
vn 0.500000 0.707107 -0.500000
vn 0.652991 0.382683 -0.652991
vn 0.707107 0.000000 -0.707107
vn 0.652991 -0.382683 -0.652991
vn 0.500000 -0.707107 -0.500000
vn 0.270598 -0.923880 -0.270598

# 面 (faces) - 按逆时针顺序排列，确保法向量朝外
# 北极帽
f 1/1/1 10/10/10 2/2/2
f 1/1/1 17/17/17 10/10/10
f 1/1/1 24/24/24 17/17/17
f 1/1/1 31/31/31 24/24/24
f 1/1/1 38/38/38 31/31/31
f 1/1/1 45/45/45 38/38/38
f 1/1/1 52/52/52 45/45/45
f 1/1/1 2/2/2 52/52/52

# 第一环带
f 2/2/2 10/10/10 11/11/11
f 2/2/2 11/11/11 3/3/3
f 3/3/3 11/11/11 12/12/12
f 3/3/3 12/12/12 4/4/4
f 4/4/4 12/12/12 13/13/13
f 4/4/4 13/13/13 5/5/5
f 5/5/5 13/13/13 14/14/14
f 5/5/5 14/14/14 6/6/6
f 6/6/6 14/14/14 15/15/15
f 6/6/6 15/15/15 7/7/7
f 7/7/7 15/15/15 16/16/16
f 7/7/7 16/16/16 8/8/8
f 8/8/8 16/16/16 23/23/23
f 8/8/8 23/23/23 9/9/9

f 10/10/10 17/17/17 18/18/18
f 10/10/10 18/18/18 11/11/11
f 17/17/17 24/24/24 25/25/25
f 17/17/17 25/25/25 18/18/18
f 24/24/24 31/31/31 32/32/32
f 24/24/24 32/32/32 25/25/25
f 31/31/31 38/38/38 39/39/39
f 31/31/31 39/39/39 32/32/32
f 38/38/38 45/45/45 46/46/46
f 38/38/38 46/46/46 39/39/39
f 45/45/45 52/52/52 53/53/53
f 45/45/45 53/53/53 46/46/46
f 52/52/52 2/2/2 3/3/3
f 52/52/52 3/3/3 53/53/53

# 第二环带
f 11/11/11 18/18/18 19/19/19
f 11/11/11 19/19/19 12/12/12
f 18/18/18 25/25/25 26/26/26
f 18/18/18 26/26/26 19/19/19
f 25/25/25 32/32/32 33/33/33
f 25/25/25 33/33/33 26/26/26
f 32/32/32 39/39/39 40/40/40
f 32/32/32 40/40/40 33/33/33
f 39/39/39 46/46/46 47/47/47
f 39/39/39 47/47/47 40/40/40
f 46/46/46 53/53/53 54/54/54
f 46/46/46 54/54/54 47/47/47
f 53/53/53 3/3/3 4/4/4
f 53/53/53 4/4/4 54/54/54

# 第三环带（赤道）
f 12/12/12 19/19/19 20/20/20
f 12/12/12 20/20/20 13/13/13
f 19/19/19 26/26/26 27/27/27
f 19/19/19 27/27/27 20/20/20
f 26/26/26 33/33/33 34/34/34
f 26/26/26 34/34/34 27/27/27
f 33/33/33 40/40/40 41/41/41
f 33/33/33 41/41/41 34/34/34
f 40/40/40 47/47/47 48/48/48
f 40/40/40 48/48/48 41/41/41
f 47/47/47 54/54/54 55/55/55
f 47/47/47 55/55/55 48/48/48
f 54/54/54 4/4/4 5/5/5
f 54/54/54 5/5/5 55/55/55

# 第四环带
f 13/13/13 20/20/20 21/21/21
f 13/13/13 21/21/21 14/14/14
f 20/20/20 27/27/27 28/28/28
f 20/20/20 28/28/28 21/21/21
f 27/27/27 34/34/34 35/35/35
f 27/27/27 35/35/35 28/28/28
f 34/34/34 41/41/41 42/42/42
f 34/34/34 42/42/42 35/35/35
f 41/41/41 48/48/48 49/49/49
f 41/41/41 49/49/49 42/42/42
f 48/48/48 55/55/55 56/56/56
f 48/48/48 56/56/56 49/49/49
f 55/55/55 5/5/5 6/6/6
f 55/55/55 6/6/6 56/56/56

# 第五环带
f 14/14/14 21/21/21 22/22/22
f 14/14/14 22/22/22 15/15/15
f 21/21/21 28/28/28 29/29/29
f 21/21/21 29/29/29 22/22/22
f 28/28/28 35/35/35 36/36/36
f 28/28/28 36/36/36 29/29/29
f 35/35/35 42/42/42 43/43/43
f 35/35/35 43/43/43 36/36/36
f 42/42/42 49/49/49 50/50/50
f 42/42/42 50/50/50 43/43/43
f 49/49/49 56/56/56 57/57/57
f 49/49/49 57/57/57 50/50/50
f 56/56/56 6/6/6 7/7/7
f 56/56/56 7/7/7 57/57/57

# 第六环带
f 15/15/15 22/22/22 23/23/23
f 15/15/15 23/23/23 16/16/16
f 22/22/22 29/29/29 30/30/30
f 22/22/22 30/30/30 23/23/23
f 29/29/29 36/36/36 37/37/37
f 29/29/29 37/37/37 30/30/30
f 36/36/36 43/43/43 44/44/44
f 36/36/36 44/44/44 37/37/37
f 43/43/43 50/50/50 51/51/51
f 43/43/43 51/51/51 44/44/44
f 50/50/50 57/57/57 58/58/58
f 50/50/50 58/58/58 51/51/51
f 57/57/57 7/7/7 8/8/8
f 57/57/57 8/8/8 58/58/58

# 南极帽
f 16/16/16 23/23/23 9/9/9
f 23/23/23 30/30/30 9/9/9
f 30/30/30 37/37/37 9/9/9
f 37/37/37 44/44/44 9/9/9
f 44/44/44 51/51/51 9/9/9
f 51/51/51 58/58/58 9/9/9
f 58/58/58 16/16/16 9/9/9